<svg width="292" height="55" viewBox="0 0 292 55" fill="none" xmlns="http://www.w3.org/2000/svg">
<path d="M28.2636 0.349609C28.2636 0.349609 10.7761 4.14472 8.3777 18.748C6.97651 28.6398 23.6415 26.6391 23.6415 26.6391C19.5362 28.6634 14.9969 29.7412 10.383 29.7871C2.69652 29.5982 0.00696697 24.8832 0.00696697 21.4309C0.00696697 21.4309 -0.280549 18.7795 2.83846 14.5297C5.50981 10.7451 10.7251 6.13497 19.5035 2.70013C23.2994 1.26254 28.2636 0.349609 28.2636 0.349609Z" fill="#39AA62"/>
<path d="M16.5011 20.5389C21.8887 18.2794 27.6958 17.0896 33.5737 17.041C42.9526 17.1005 45.5293 22.036 45.5293 25.6737C45.5293 29.3115 43.5349 33.2886 39.1894 37.5979C34.8439 41.9073 28.2711 46.8113 18.8558 50.435C11.1547 53.4432 1.5575 54.0063 1.5575 54.0063C1.5575 54.0063 15.8496 49.8299 26.7934 38.8921C37.7373 27.9543 32.2526 23.3057 30.9642 22.1479C29.6759 20.9901 26.6442 18.8214 16.5011 20.5389Z" fill="#1577BE"/>
<path d="M38.2841 11.2812C41.0348 9.6687 42.0769 6.48971 40.6116 4.18074C39.1463 1.87176 35.7285 1.30716 32.9778 2.91966C30.227 4.53216 29.1849 7.71115 30.6502 10.0201C32.1155 12.3291 35.5333 12.8937 38.2841 11.2812Z" fill="#D74F1B"/>
<path d="M63.2169 16.6357C63.0677 17.1184 62.1542 18.1083 61.2443 18.9023C60.036 19.9762 58.2964 21.3928 56.7387 22.582L54.999 20.5988C56.6538 19.3959 58.2336 18.1006 59.7303 16.7197C61.2334 15.2786 61.6447 14.2013 61.6447 12.2215V8.08711H64.589V12.1061C64.589 13.855 64.7091 14.7959 66.1212 16.0411C67.6501 17.3599 69.2526 18.5976 70.9216 19.7488L69.2147 21.7041C67.6825 20.5988 66.3286 19.5249 64.9129 18.3916C64.0285 17.6921 63.4134 17.0625 63.2351 16.6427L63.2169 16.6357ZM63.4243 30.2527H78.0331V32.7012H60.5055V23.9112H63.4171L63.4243 30.2527ZM74.5829 25.4397V15.1947H69.1237V12.7847H74.5829V6.86987H77.4726V25.4397H74.5829Z" fill="white"/>
<path d="M83.1975 22.2427V14.0299H92.4162V10.5775H83.1101V8.20254H95.3023V16.3524H86.0872V19.8502H88.5584C91.7775 19.855 94.9938 19.6657 98.1883 19.2836L98.4249 21.6306C95.8773 22.0294 91.3862 22.2287 88.2636 22.2287L83.1975 22.2427ZM89.9013 30.2527H104.51V32.7012H86.9679V24.8731H89.8795L89.9013 30.2527ZM101.064 25.6076V6.86987H103.95V25.6076H101.064Z" fill="white"/>
<path d="M108.721 15.3903V13.8059C108.721 10.6054 111.4 7.7197 115.789 7.7197C120.178 7.7197 122.857 10.6054 122.857 13.8059V15.3903C122.857 18.5873 120.174 21.4765 115.789 21.4765C111.403 21.4765 108.721 18.5873 108.721 15.3903ZM112.226 14.0612V15.135C112.226 16.8349 113.58 18.3914 115.789 18.3914C117.998 18.3914 119.352 16.8349 119.352 15.135V14.0612C119.352 12.3613 117.998 10.8047 115.789 10.8047C113.58 10.8047 112.226 12.3613 112.226 14.0612ZM116.935 29.7313H131.074V32.7883H113.194V23.9669H116.935V29.7313ZM130.63 25.485H126.922V6.75781H130.63V25.485Z" fill="#EE7C3D"/>
<path d="M135.889 8.79353H148.7V11.8226H139.602V16.069H147.769V19.0981H139.602V23.5717H141.632C144.656 23.594 147.678 23.4316 150.68 23.0856L151.044 26.0902C148.304 26.5134 144.326 26.6008 140.734 26.6008H135.889V8.79353ZM149.261 15.957H153.766V6.75781H157.508V33.0823H153.766V19.0141H149.261V15.957Z" fill="#EE7C3D"/>
<path d="M165.416 8.48575V17.6851C168.066 17.735 170.715 17.5829 173.339 17.2304L173.751 20.0881C171.01 20.5988 168.535 20.6828 161.74 20.6828V8.48575H165.416ZM174.664 28.7243C174.486 29.2315 173.398 29.8821 171.807 30.6761C169.922 31.61 167.771 32.572 165.769 33.366L164.314 30.4208C166.497 29.5708 168.968 28.5249 170.675 27.647C172.062 26.9474 172.71 26.0625 172.71 24.6178V22.3862H176.477V24.6213C176.477 26.066 177.037 26.9159 178.482 27.6505C180.16 28.497 182.791 29.6303 184.855 30.4313L183.399 33.2925C181.397 32.4705 179.246 31.5086 177.39 30.6027C175.858 29.8646 174.886 29.2035 174.682 28.7348L174.664 28.7243ZM175.312 14.9953H170.068V11.9661H175.312V7.0971H178.817V21.1375H175.312V14.9953ZM180.702 6.75781H184.236V23.6839H180.702V6.75781Z" fill="#EE7C3D"/>
<path d="M212.434 27.1083V29.4868H187.515V27.1083H196.537V17.6256H199.449V27.1083H212.434ZM208.795 9.22029V12.6447C208.795 17.7131 208.471 20.5428 207.794 24.0791L204.883 23.7294C205.555 20.4061 205.884 17.0271 205.865 13.6416V11.6548H190.58V9.2063L208.795 9.22029Z" fill="white"/>
<path d="M238.955 18.9862V21.3612H214.036V18.9862H238.955ZM235.115 7.83179V10.2103H220.594V14.3726H235.29V16.7476H217.719V7.83179H235.115ZM218.01 29.0073V28.0454C218.01 25.3277 221.307 23.3444 226.493 23.3444C231.68 23.3444 234.973 25.3521 234.973 28.0454V29.0073C234.973 31.6376 231.698 33.7048 226.493 33.7048C221.289 33.7048 218.01 31.6656 218.01 29.0073ZM220.896 28.2133V28.8359C220.896 30.1931 223.163 31.4103 226.493 31.4103C229.824 31.4103 232.087 30.1931 232.087 28.8359V28.2133C232.087 26.8562 229.82 25.6355 226.493 25.6355C223.167 25.6355 220.9 26.8562 220.9 28.2133H220.896Z" fill="white"/>
<path d="M256.464 11.9657H240.884V9.61515H247.246V6.53003H250.132V9.61515H256.464V11.9657ZM242.358 18.2619V17.3699C242.358 15.1942 244.33 12.9276 248.687 12.9276C253.043 12.9276 255.019 15.2187 255.019 17.3699V18.2759C255.019 20.4306 253.047 22.7217 248.687 22.7217C244.327 22.7217 242.358 20.4306 242.358 18.2759V18.2619ZM244.829 24.4916H262V33.2292H259.088V26.9331H244.829V24.4916ZM252.253 18.122V17.5133C252.253 16.38 251.103 15.1628 248.687 15.1628C246.27 15.1628 245.124 16.38 245.124 17.5133V18.136C245.124 19.2693 246.303 20.4865 248.687 20.4865C251.071 20.4865 252.253 19.2693 252.253 18.136V18.122ZM265.861 16.1422H262V23.1379H259.114V6.86932H262V13.7216H265.861V16.1422Z" fill="white"/>
<path d="M292 27.1083V29.4868H267.081V27.1083H272.736V18.0803H275.593V27.1083H279.185V18.0803H282.042V27.1083H292ZM288.615 9.19221V12.6166C288.615 17.685 288.408 20.5148 287.76 24.0511L284.874 23.7014C285.602 20.1055 285.729 17.1079 285.729 13.596V11.6267H270.145V9.17822L288.615 9.19221Z" fill="white"/>
<path d="M81.6725 42.5124C81.6407 42.5829 81.589 42.6435 81.5233 42.6873C81.461 42.7206 81.3907 42.7375 81.3195 42.7363C81.2253 42.7314 81.1345 42.7011 81.0574 42.6488C80.9592 42.5929 80.8464 42.5264 80.7117 42.4565C80.5631 42.3783 80.4071 42.3139 80.2458 42.2641C80.0426 42.2011 79.8297 42.1716 79.6162 42.1766C79.4242 42.1731 79.2327 42.1979 79.0485 42.2501C78.8985 42.2954 78.7589 42.3678 78.6372 42.4635C78.5287 42.5498 78.4438 42.6602 78.3897 42.7853C78.3337 42.9162 78.3052 43.0565 78.306 43.198C78.2977 43.3722 78.3574 43.5431 78.4734 43.6772C78.5962 43.8127 78.7459 43.9233 78.9138 44.0025C79.1166 44.1 79.3271 44.1819 79.5434 44.2473C79.7764 44.3173 80.0166 44.3943 80.2713 44.4747C80.5191 44.5551 80.7621 44.6485 80.9992 44.7545C81.23 44.8571 81.4425 44.994 81.6288 45.1603C81.8156 45.3295 81.9653 45.5329 82.0692 45.7584C82.1884 46.0304 82.2455 46.3238 82.2366 46.6189C82.2394 46.9717 82.1727 47.3218 82.0401 47.6507C81.9139 47.9673 81.7177 48.2537 81.4651 48.4902C81.2016 48.7367 80.8882 48.9284 80.5443 49.0534C80.1462 49.1952 79.724 49.2641 79.2996 49.2562C79.0321 49.2564 78.7652 49.2318 78.5025 49.1828C78.2455 49.1312 77.9934 49.0586 77.7492 48.9659C77.5135 48.8706 77.288 48.7534 77.0759 48.6161C76.8741 48.4905 76.6874 48.3438 76.519 48.1789L76.974 47.4514C77.0173 47.3992 77.0704 47.3553 77.1305 47.3219C77.1901 47.2849 77.2597 47.2655 77.3306 47.266C77.4461 47.2719 77.5568 47.3123 77.6473 47.3814C77.7601 47.4584 77.8948 47.5458 78.0476 47.6402C78.2205 47.7414 78.4033 47.8257 78.5935 47.8921C78.8345 47.9775 79.0902 48.0178 79.3469 48.011C79.7211 48.0324 80.0908 47.9231 80.3878 47.7032C80.5129 47.5916 80.6105 47.4545 80.6735 47.302C80.7364 47.1495 80.7632 46.9854 80.7517 46.8217C80.7611 46.6345 80.7018 46.4501 80.5843 46.3006C80.4663 46.1541 80.3158 46.0346 80.1439 45.9508C79.944 45.8518 79.7343 45.7721 79.518 45.7129C79.2814 45.6535 79.0448 45.5835 78.7901 45.5066C78.5418 45.4317 78.2986 45.3417 78.0622 45.2372C77.8316 45.1346 77.6201 44.9964 77.4362 44.828C77.2455 44.647 77.0956 44.4304 76.9958 44.1914C76.875 43.8941 76.8181 43.5764 76.8284 43.2575C76.8302 42.9549 76.8956 42.6557 77.0207 42.378C77.1457 42.1003 77.3279 41.8498 77.5563 41.6415C77.8063 41.4144 78.1007 41.2372 78.4225 41.1203C78.7989 40.9833 79.1992 40.9168 79.6017 40.9244C80.0717 40.9192 80.5388 40.9951 80.981 41.1483C81.3862 41.2836 81.758 41.4979 82.0729 41.7779L81.6725 42.5124Z" fill="white"/>
<path d="M86.9899 47.948C87.2692 47.9526 87.5466 47.9026 87.8051 47.8011C88.0376 47.7094 88.2454 47.5683 88.4129 47.3883C88.5797 47.2019 88.7037 46.9838 88.7769 46.7483C88.8676 46.4759 88.9118 46.1913 88.9079 45.9054V41.0332H90.4838V45.9054C90.487 46.3635 90.4044 46.8184 90.2399 47.2484C90.0852 47.6409 89.8472 47.9983 89.5411 48.2977C89.2317 48.6012 88.8598 48.8394 88.4493 48.9972C87.5087 49.3248 86.4783 49.3248 85.5378 48.9972C85.1262 48.8443 84.7529 48.6094 84.4424 48.308C84.1319 48.0066 83.8913 47.6455 83.7362 47.2484C83.5729 46.8182 83.4916 46.3633 83.496 45.9054V41.0332H85.0683V45.8984C85.064 46.1843 85.1083 46.469 85.1993 46.7413C85.2744 46.9782 85.3982 47.1982 85.5632 47.3883C85.7301 47.5675 85.9365 47.7085 86.1674 47.8011C86.4284 47.9031 86.7082 47.9531 86.9899 47.948Z" fill="white"/>
<path d="M93.3407 41.0402C93.3848 41.0456 93.4277 41.0574 93.4681 41.0752C93.5077 41.0949 93.5444 41.1196 93.5773 41.1486C93.6184 41.1885 93.6573 41.2306 93.6937 41.2745L98.1375 46.7133C98.1195 46.5857 98.1086 46.4573 98.1047 46.3286C98.1047 46.2027 98.1047 46.0872 98.1047 45.9788V41.0332H99.4914V49.1686H98.6798C98.5733 49.1717 98.4675 49.1514 98.3704 49.1092C98.2737 49.0623 98.191 48.9925 98.1302 48.9063L93.7046 43.492C93.7046 43.6109 93.7265 43.7299 93.7301 43.8418C93.7337 43.9537 93.7301 44.0656 93.7301 44.1636V49.1616H92.3398V41.0332H93.1769L93.3407 41.0402Z" fill="white"/>
<path d="M103.003 45.9895V49.1692H101.427V41.0328H104.008C104.509 41.0245 105.008 41.0822 105.493 41.2042C105.86 41.2981 106.204 41.4623 106.505 41.6869C106.761 41.8806 106.96 42.1349 107.083 42.425C107.307 42.9763 107.329 43.5846 107.145 44.1495C106.979 44.6376 106.644 45.0561 106.195 45.3354C105.95 45.4884 105.683 45.6062 105.402 45.6852C105.61 45.8067 105.786 45.9732 105.915 46.1714L108.033 49.1762H106.617C106.491 49.1822 106.365 49.1543 106.253 49.0958C106.154 49.0412 106.071 48.9643 106.01 48.8719L104.23 46.2658C104.175 46.1812 104.1 46.1104 104.011 46.0594C103.897 46.0097 103.772 45.9881 103.648 45.9965L103.003 45.9895ZM103.003 44.9051H103.986C104.249 44.9103 104.511 44.8736 104.761 44.7967C104.962 44.7355 105.148 44.6355 105.307 44.5028C105.447 44.379 105.556 44.2258 105.624 44.0551C105.695 43.8728 105.731 43.6796 105.729 43.4849C105.74 43.3058 105.707 43.1267 105.634 42.9616C105.561 42.7966 105.449 42.65 105.307 42.5334C104.925 42.2851 104.468 42.168 104.008 42.2011H103.003V44.9051Z" fill="white"/>
<path d="M110.828 49.1689H109.249V41.0332H110.828V49.1689Z" fill="white"/>
<path d="M113.842 41.0402C113.886 41.0456 113.929 41.0574 113.969 41.0752C114.009 41.0949 114.045 41.1196 114.078 41.1486C114.119 41.1885 114.158 41.2306 114.195 41.2745L118.653 46.7133C118.635 46.5857 118.624 46.4573 118.62 46.3286C118.62 46.2027 118.62 46.0872 118.62 45.9788V41.0332H120.007V49.1686H119.195C119.089 49.1717 118.983 49.1514 118.886 49.1092C118.789 49.0623 118.706 48.9925 118.646 48.9063L114.22 43.492C114.22 43.6109 114.238 43.7299 114.246 43.8418C114.253 43.9537 114.246 44.0656 114.246 44.1636V49.1616H112.83V41.0332H113.656L113.842 41.0402Z" fill="white"/>
<path d="M127.985 49.1689H126.405V41.0332H127.985V49.1689Z" fill="#EE7C3D"/>
<path d="M130.998 41.0402C131.042 41.0456 131.085 41.0574 131.126 41.0752C131.165 41.0949 131.202 41.1196 131.235 41.1486C131.276 41.1885 131.315 41.2306 131.351 41.2745L135.795 46.7133C135.777 46.5857 135.766 46.4573 135.762 46.3286C135.762 46.2027 135.762 46.0872 135.762 45.9788V41.0332H137.149V49.1686H136.337C136.231 49.1717 136.125 49.1514 136.028 49.1092C135.931 49.0623 135.848 48.9925 135.788 48.9063L131.362 43.492C131.362 43.6109 131.384 43.7299 131.388 43.8418C131.391 43.9537 131.388 44.0656 131.388 44.1636V49.1616H129.997V41.0332H130.823L130.998 41.0402Z" fill="#EE7C3D"/>
<path d="M144.926 41.0332V42.2784H142.379V49.1689H140.803V42.2784H138.255V41.0332H144.926Z" fill="#EE7C3D"/>
<path d="M151.375 41.0332V42.2364H147.623V44.4925H150.582V45.6572H147.623V47.9587H151.375V49.1689H146.04V41.0332H151.375Z" fill="#EE7C3D"/>
<path d="M154.451 45.9895V49.1689H152.864V41.0332H155.448C155.947 41.0252 156.446 41.0828 156.929 41.2046C157.297 41.2994 157.643 41.4634 157.944 41.6873C158.198 41.8829 158.397 42.1367 158.523 42.4253C158.744 42.9774 158.764 43.585 158.581 44.1497C158.499 44.389 158.376 44.6136 158.217 44.8143C158.054 45.0183 157.856 45.1944 157.631 45.3354C157.387 45.4897 157.119 45.6076 156.838 45.6852C157.045 45.8013 157.222 45.9616 157.355 46.1539L159.473 49.1584H158.068C157.941 49.1644 157.815 49.1366 157.704 49.078C157.606 49.0228 157.522 48.9461 157.46 48.8541L155.684 46.2483C155.628 46.1642 155.552 46.0936 155.462 46.042C155.348 45.9922 155.223 45.9706 155.098 45.979L154.451 45.9895ZM154.451 44.9052H155.433C155.696 44.9109 155.958 44.8743 156.208 44.7968C156.41 44.7363 156.596 44.6363 156.754 44.503C156.894 44.3784 157.004 44.2254 157.075 44.0553C157.145 43.8728 157.179 43.6796 157.177 43.4851C157.188 43.3059 157.156 43.1266 157.082 42.9614C157.009 42.7963 156.897 42.6498 156.754 42.5337C156.374 42.2854 155.917 42.1683 155.459 42.2015H154.451V44.9052Z" fill="#EE7C3D"/>
<path d="M161.599 41.0402C161.641 41.0455 161.683 41.0573 161.722 41.0752C161.762 41.0949 161.799 41.1196 161.831 41.1486C161.873 41.1885 161.912 41.2306 161.948 41.2745L166.392 46.7133C166.392 46.5839 166.366 46.4545 166.359 46.3286C166.352 46.2027 166.359 46.0872 166.359 45.9788V41.0332H167.749V49.1686H166.934C166.827 49.1717 166.722 49.1514 166.625 49.1092C166.528 49.0623 166.445 48.9925 166.384 48.9063L161.962 43.492C161.962 43.6109 161.984 43.7299 161.988 43.8418C161.992 43.9537 161.988 44.0656 161.988 44.1636V49.1616H160.601V41.0332H161.424L161.599 41.0402Z" fill="#EE7C3D"/>
<path d="M174.981 41.0332V42.2364H171.229V44.4925H174.188V45.6572H171.229V47.9587H174.981V49.1689H169.646V41.0332H174.981Z" fill="#EE7C3D"/>
<path d="M182.584 41.0332V42.2784H180.036V49.1689H178.46V42.2784H175.913V41.0332H182.584Z" fill="#EE7C3D"/>
<path d="M195.241 49.1689H193.655V45.6117H189.688V49.1689H188.101V41.0332H189.688V44.5309H193.655V41.0332H195.241V49.1689Z" fill="white"/>
<path d="M198.837 49.1689H197.265V41.0332H198.845L198.837 49.1689Z" fill="white"/>
<path d="M204.766 48.0531C205.078 48.0571 205.39 48.0265 205.694 47.9621C205.954 47.9022 206.207 47.8155 206.448 47.7033V46.2238H205.389C205.345 46.2266 205.301 46.221 205.26 46.2072C205.219 46.1933 205.181 46.1716 205.148 46.1433C205.12 46.118 205.097 46.0871 205.082 46.0527C205.067 46.0183 205.06 45.9812 205.061 45.944V45.0905H207.878V48.3819C207.665 48.5296 207.44 48.6594 207.205 48.7701C206.972 48.8836 206.728 48.975 206.477 49.0429C206.2 49.1183 205.918 49.1721 205.632 49.2038C205.31 49.2399 204.985 49.2574 204.661 49.2563C204.077 49.263 203.498 49.1584 202.957 48.9485C202.453 48.7518 201.995 48.4591 201.611 48.088C201.226 47.7113 200.924 47.2641 200.723 46.7729C200.507 46.2401 200.4 45.6726 200.406 45.101C200.399 44.5265 200.504 43.9558 200.715 43.4186C200.91 42.9224 201.212 42.4718 201.603 42.0972C201.993 41.7226 202.463 41.4325 202.979 41.2465C203.561 41.0388 204.178 40.9368 204.799 40.9457C205.411 40.9311 206.021 41.0309 206.593 41.2395C207.067 41.4159 207.503 41.6757 207.878 42.0055L207.419 42.7051C207.385 42.7693 207.333 42.8231 207.269 42.8602C207.204 42.8973 207.13 42.9163 207.055 42.9149C206.951 42.9117 206.85 42.8802 206.764 42.824L206.382 42.6106C206.244 42.5365 206.099 42.4744 205.949 42.4253C205.776 42.3693 205.598 42.3261 205.418 42.2958C205.193 42.26 204.965 42.2436 204.737 42.2469C204.348 42.241 203.962 42.3099 203.602 42.4497C203.273 42.5784 202.979 42.7755 202.739 43.0269C202.494 43.29 202.307 43.5982 202.189 43.9328C202.057 44.3137 201.992 44.7133 201.997 45.115C201.99 45.5405 202.059 45.9639 202.2 46.3672C202.323 46.71 202.519 47.0245 202.775 47.2906C203.02 47.5423 203.32 47.7393 203.653 47.8677C204.008 47.9988 204.386 48.0618 204.766 48.0531Z" fill="white"/>
<path d="M216.736 49.1689H215.149V45.6117H211.182V49.1689H209.596V41.0332H211.182V44.5309H215.149V41.0332H216.736V49.1689Z" fill="white"/>
<path d="M227.498 42.5124C227.468 42.5827 227.417 42.6433 227.353 42.6873C227.29 42.7203 227.22 42.7372 227.149 42.7363C227.054 42.7323 226.963 42.7019 226.887 42.6488L226.541 42.4564C226.392 42.3795 226.236 42.3151 226.075 42.264C225.683 42.1562 225.267 42.1562 224.874 42.264C224.725 42.3093 224.587 42.3818 224.467 42.4774C224.356 42.5626 224.27 42.6733 224.215 42.7992C224.161 42.9304 224.133 43.0706 224.135 43.212C224.127 43.3862 224.187 43.5571 224.303 43.6912C224.425 43.8275 224.575 43.9383 224.743 44.0164C224.945 44.114 225.154 44.1959 225.369 44.2613C225.606 44.3313 225.842 44.4082 226.097 44.4887C226.345 44.5692 226.588 44.6626 226.825 44.7685C227.055 44.8711 227.266 45.0081 227.451 45.1742C227.639 45.3425 227.789 45.5461 227.891 45.7724C228.01 46.0444 228.068 46.3378 228.059 46.6328C228.061 46.9852 227.996 47.3351 227.866 47.6647C227.738 47.9805 227.542 48.2667 227.291 48.5041C227.027 48.7498 226.713 48.9414 226.37 49.0673C225.971 49.2091 225.547 49.2779 225.122 49.2702C224.855 49.2705 224.59 49.2459 224.328 49.1967C224.071 49.1456 223.819 49.073 223.575 48.9798C223.339 48.8853 223.113 48.7681 222.902 48.6301C222.698 48.5054 222.51 48.3587 222.341 48.1928L222.8 47.4653C222.842 47.414 222.894 47.3703 222.952 47.3359C223.013 47.2982 223.084 47.2787 223.156 47.2799C223.272 47.2859 223.382 47.3262 223.473 47.3953C223.586 47.4723 223.717 47.5597 223.873 47.6542C224.046 47.756 224.229 47.8404 224.419 47.906C224.659 47.9911 224.913 48.0315 225.169 48.0249C225.543 48.047 225.913 47.9376 226.21 47.7171C226.335 47.6058 226.433 47.4688 226.496 47.3162C226.559 47.1637 226.586 46.9994 226.574 46.8357C226.582 46.6487 226.523 46.4647 226.406 46.3145C226.287 46.168 226.135 46.0485 225.962 45.9647C225.763 45.8646 225.553 45.7848 225.336 45.7269C225.103 45.6674 224.867 45.5975 224.608 45.5205C224.36 45.4462 224.117 45.3562 223.881 45.2512C223.65 45.1494 223.438 45.0111 223.255 44.8419C223.064 44.6603 222.913 44.4438 222.811 44.2053C222.692 43.9075 222.635 43.5902 222.643 43.2714C222.645 42.9733 222.708 42.6785 222.829 42.404C222.953 42.1215 223.136 41.8667 223.367 41.6554C223.619 41.429 223.915 41.252 224.237 41.1343C224.612 40.997 225.011 40.9305 225.413 40.9384C225.884 40.9332 226.352 41.009 226.796 41.1622C227.201 41.2984 227.572 41.5127 227.888 41.7918L227.498 42.5124Z" fill="white"/>
<path d="M235.257 47.2484C235.3 47.2487 235.341 47.2572 235.38 47.2735C235.419 47.2897 235.454 47.3133 235.483 47.3429L236.102 47.99C235.763 48.3958 235.329 48.7183 234.835 48.9309C234.26 49.1631 233.639 49.274 233.015 49.2562C232.435 49.2653 231.86 49.1605 231.323 48.9484C230.837 48.7518 230.399 48.4586 230.038 48.0879C229.676 47.7075 229.399 47.26 229.223 46.7727C229.029 46.2353 228.933 45.6696 228.939 45.1008C228.932 44.5268 229.039 43.9568 229.256 43.4218C229.453 42.9286 229.756 42.4806 230.144 42.1066C230.535 41.7332 231.002 41.4415 231.516 41.2496C232.079 41.0416 232.678 40.9384 233.281 40.9453C233.845 40.9333 234.406 41.0309 234.93 41.2321C235.379 41.4136 235.789 41.6747 236.138 42.0017L235.61 42.7012C235.578 42.7475 235.537 42.7878 235.49 42.8202C235.43 42.8547 235.36 42.8717 235.29 42.8691C235.189 42.8665 235.091 42.8307 235.014 42.7677C234.919 42.7012 234.799 42.6278 234.65 42.5473C234.474 42.4577 234.29 42.3851 234.1 42.3305C233.828 42.2549 233.546 42.2207 233.263 42.229C232.889 42.2258 232.518 42.2935 232.171 42.4284C231.845 42.5567 231.552 42.7512 231.312 42.9986C231.064 43.2602 230.874 43.5671 230.752 43.901C230.611 44.2852 230.542 44.6901 230.548 45.0973C230.541 45.5125 230.61 45.9256 230.752 46.318C230.871 46.6489 231.057 46.9542 231.298 47.217C231.522 47.4584 231.799 47.6495 232.109 47.7766C232.428 47.9078 232.771 47.9745 233.117 47.9725C233.312 47.9743 233.507 47.9626 233.7 47.9375C233.864 47.9196 234.025 47.8832 234.18 47.8291C234.325 47.7831 234.465 47.7209 234.595 47.6437C234.734 47.5605 234.865 47.4644 234.984 47.3569C235.022 47.3257 235.064 47.2988 235.108 47.2764C235.155 47.2553 235.206 47.2457 235.257 47.2484Z" fill="white"/>
<path d="M244.469 49.1689H242.886V45.6117H238.915V49.1689H237.328V41.0332H238.915V44.5309H242.886V41.0332H244.469V49.1689Z" fill="white"/>
<path d="M254.499 45.1008C254.503 45.6671 254.398 46.2292 254.19 46.7589C253.992 47.2497 253.695 47.698 253.316 48.0776C252.934 48.4543 252.474 48.7498 251.966 48.945C250.838 49.3601 249.59 49.3601 248.461 48.945C247.951 48.749 247.489 48.4537 247.104 48.0776C246.722 47.699 246.424 47.2506 246.227 46.7589C245.814 45.6891 245.814 44.5126 246.227 43.4428C246.423 42.9507 246.721 42.502 247.104 42.1241C247.489 41.748 247.951 41.4526 248.461 41.2567C249.589 40.8393 250.838 40.8393 251.966 41.2567C252.474 41.4531 252.933 41.7485 253.316 42.1241C253.696 42.5019 253.993 42.9491 254.19 43.4393C254.399 43.9699 254.504 44.5333 254.499 45.1008ZM252.883 45.1008C252.889 44.6931 252.827 44.287 252.701 43.8976C252.59 43.566 252.409 43.26 252.17 42.9986C251.938 42.7502 251.65 42.5553 251.329 42.4285C250.61 42.1674 249.817 42.1674 249.098 42.4285C248.774 42.5543 248.484 42.7493 248.25 42.9986C248.008 43.2589 247.826 43.5652 247.715 43.8976C247.585 44.2862 247.521 44.6926 247.526 45.1008C247.521 45.508 247.585 45.9133 247.715 46.3006C247.826 46.634 248.008 46.9414 248.25 47.2031C248.485 47.4503 248.775 47.6429 249.098 47.7662C249.816 48.0319 250.611 48.0319 251.329 47.7662C251.65 47.6419 251.937 47.4494 252.17 47.2031C252.409 46.9404 252.59 46.6332 252.701 46.3006C252.827 45.9125 252.889 45.5075 252.883 45.1008Z" fill="white"/>
<path d="M264.071 45.1009C264.077 45.6673 263.972 46.2297 263.761 46.7589C263.564 47.2497 263.267 47.698 262.888 48.0776C262.505 48.4535 262.045 48.7489 261.538 48.945C260.409 49.3601 259.161 49.3601 258.033 48.945C257.522 48.75 257.06 48.4545 256.675 48.0776C256.295 47.6989 255.998 47.2504 255.802 46.7589C255.384 45.69 255.384 44.5118 255.802 43.4429C255.997 42.951 256.294 42.5023 256.675 42.1242C257.065 41.7524 257.531 41.4629 258.044 41.2742C259.172 40.8568 260.421 40.8568 261.549 41.2742C262.056 41.4717 262.515 41.7669 262.899 42.1417C263.279 42.5194 263.576 42.9667 263.772 43.4569C263.978 43.9822 264.079 44.5398 264.071 45.1009ZM262.455 45.1009C262.461 44.6928 262.398 44.2865 262.269 43.8976C262.161 43.5657 261.981 43.2594 261.741 42.9987C261.51 42.7495 261.222 42.5545 260.901 42.4285C260.182 42.1674 259.389 42.1674 258.67 42.4285C258.346 42.5553 258.056 42.7501 257.822 42.9987C257.581 43.2599 257.399 43.5659 257.287 43.8976C257.039 44.681 257.039 45.5173 257.287 46.3007C257.399 46.6334 257.581 46.9406 257.822 47.2031C258.057 47.4496 258.347 47.6421 258.67 47.7663C259.388 48.032 260.183 48.032 260.901 47.7663C261.222 47.6429 261.51 47.4502 261.741 47.2031C261.981 46.9411 262.161 46.6336 262.269 46.3007C262.398 45.9131 262.461 45.5079 262.455 45.1009Z" fill="white"/>
<path d="M267.091 47.9202H270.48V49.1689H265.516V41.0332H267.091V47.9202Z" fill="white"/>
</svg>
