<svg xmlns="http://www.w3.org/2000/svg" viewBox="0 0 182.95 210.53"><defs><style>.cls-1,.cls-5,.cls-6{fill:#fff;}.cls-1,.cls-2{stroke:#231815;}.cls-1,.cls-2,.cls-3,.cls-5{stroke-miterlimit:10;}.cls-2,.cls-3,.cls-4{fill:#0f312f;}.cls-3,.cls-5{stroke:#000;}</style></defs><g id="레이어_2" data-name="레이어 2"><g id="레이어_1-2" data-name="레이어 1"><rect class="cls-1" x="83.13" y="19.11" width="58.68" height="53.62"/><rect class="cls-1" x="33.84" y="106.03" width="58.68" height="53.62"/><rect class="cls-2" x="102.08" y="63.01" width="55.6" height="57.12"/><rect class="cls-2" x="9.1" y="63.01" width="60.37" height="57.12"/><path class="cls-3" d="M.5,102.08v69.4a10.73,10.73,0,0,0,10.73,10.73H80.62a10.73,10.73,0,0,0,10.73-10.73V143.56a14,14,0,1,1,0-13.55V102.08A10.73,10.73,0,0,0,80.62,91.35H11.23A10.73,10.73,0,0,0,.5,102.08Z"/><path class="cls-3" d="M182.45,80.62V11.23A10.73,10.73,0,0,0,171.72.5h-69.4A10.73,10.73,0,0,0,91.59,11.23V39.15a14,14,0,1,1,0,13.55V80.62a10.73,10.73,0,0,0,10.73,10.73h69.4A10.73,10.73,0,0,0,182.45,80.62Z"/><rect class="cls-4" x="39.23" y="89.86" width="13.42" height="5.62"/><rect class="cls-4" x="129.84" y="89.86" width="14.36" height="6.66"/><path d="M25.79,209v-1.47a12.72,12.72,0,0,0,6,1.44c3.75,0,5.37-1.65,5.37-4.35s-1.5-3.57-4.23-4.47l-1.74-.6c-3.36-1.11-5-2.58-5-5.79,0-3,2.16-5.34,6.45-5.34a11,11,0,0,1,5.19,1.17v1.53a11.1,11.1,0,0,0-5.25-1.2c-3.09,0-4.62,1.5-4.62,3.69,0,2.4,1,3.42,3.93,4.38l1.71.57c3.24,1.08,5.31,2.37,5.31,5.94s-2.1,6-7,6A12.26,12.26,0,0,1,25.79,209Z"/><path d="M49,202.88V188.75h1.71v14c0,4.71,2.16,6.3,6,6.3s5.91-1.56,5.91-6.33v-14h1.59v14.1c0,5.34-2.61,7.68-7.56,7.68S49,208.1,49,202.88Z"/><path d="M88.88,199.13h10.5v1.5H88.88Z"/><path d="M124.19,188.78h1.74v21.39h-1.74Z"/><path d="M142.49,190.25h-7v-1.47h15.66v1.47h-7v19.92h-1.74Z"/><path class="cls-5" d="M80.86.5H11.47A10.72,10.72,0,0,0,.74,11.23V80.62A10.72,10.72,0,0,0,11.47,91.35H39.39a14,14,0,1,1,13.55,0H80.86A10.72,10.72,0,0,0,91.59,80.62V11.23A10.72,10.72,0,0,0,80.86.5Z"/><path class="cls-5" d="M102.32,182.21h69.4a10.74,10.74,0,0,0,10.73-10.73v-69.4a10.74,10.74,0,0,0-10.73-10.73H143.79a14,14,0,1,1-13.55,0H102.32a10.74,10.74,0,0,0-10.73,10.73v69.4A10.74,10.74,0,0,0,102.32,182.21Z"/><rect class="cls-6" x="90.91" y="130.57" width="1.85" height="12.04"/><rect class="cls-6" x="90.91" y="38.66" width="1.85" height="14.53"/></g></g></svg>