<svg xmlns="http://www.w3.org/2000/svg" width="140" height="38" viewBox="0 0 140 38">
    <g fill="none" fill-rule="evenodd">
        <g fill-rule="nonzero">
            <g>
                <path fill="#DEDEDE" d="M13.319 26.125L27.904 26.125 10.232 19.357z" transform="translate(-416 -10895) translate(416 10895)"/>
                <path fill="#F2F1F0" d="M10.232 19.357L10.232 19.357 27.904 26.125 1.404 0z" transform="translate(-416 -10895) translate(416 10895)"/>
                <path fill="#B4B4B4" d="M8.581 19.726L11.439 27.582 13.711 33.808 13.319 26.125 10.232 19.357 10.232 19.357 1.404 0z" transform="translate(-416 -10895) translate(416 10895)"/>
                <path fill="#D1D1D1" d="M11.439 27.581L13.711 33.808 10.231 28.646 10.219 28.63z" transform="translate(-416 -10895) translate(416 10895)"/>
                <path fill="#DEDEDE" d="M0 37.413L10.219 28.63 11.439 27.581 8.581 19.726z" transform="translate(-416 -10895) translate(416 10895)"/>
                <path fill="#F2F1F0" d="M0 37.413L8.581 19.726 1.404 0z" transform="translate(-416 -10895) translate(416 10895)"/>
                <g fill="#FFF">
                    <path d="M10.944 8.502c.717-2.002 3.955-.947 3.159 1.11L9.51 21.136c-1.008 2.597-3.928 2.543-4.883.027L.143 9.774c-.822-2.3 2.654-3.301 3.344-1.218l3.689 10.227 3.768-10.281zM15.979 18.982c1.088 0 1.99.947 1.99 2.057 0 1.109-.902 2.029-1.99 2.029-1.115 0-2.017-.92-2.017-2.03 0-1.109.902-2.056 2.017-2.056M25.38 10.72v10.741c0 .974-.822 1.461-1.698 1.461-.902 0-1.751-.487-1.751-1.46V10.72H20.79c-.903 0-1.354-.731-1.354-1.543 0-.757.425-1.46 1.327-1.46h1.168v-1.3C21.93 2.605 24 .98 26.787.98c.93 0 1.725.136 2.389.325 1.83.514 1.115 3.355-.505 2.922-.477-.135-.928-.216-1.38-.216-1.432 0-1.91.838-1.91 2.489v1.217h2.813c.929 0 1.406.73 1.406 1.516 0 .784-.477 1.488-1.38 1.488h-2.84zM35.757 8.962v.893c1.008-1.623 2.76-2.408 4.087-2.408.902 0 1.778.189 2.256.622.291.244.504.758.504 1.245.026 1.353-.85 2.11-1.884 1.731-.372-.135-1.009-.216-1.54-.216-1.565 0-2.813.703-3.423 2.164v8.468c0 .975-.823 1.462-1.699 1.462-.928 0-1.751-.487-1.751-1.462v-12.5c0-.946.823-1.46 1.751-1.46.876 0 1.699.514 1.699 1.46M44.195 8.935c0-.947.823-1.461 1.726-1.461.875 0 1.698.514 1.698 1.46v12.527c0 .974-.849 1.462-1.725 1.462-.902 0-1.699-.488-1.699-1.462V8.935zm1.699-7.765c1.115 0 2.017.893 2.017 2.029 0 1.11-.902 1.975-2.017 1.975-1.141 0-1.99-.865-1.99-1.975 0-1.136.849-2.03 1.99-2.03zM54.067 13.507h6.555c-.106-2.029-1.485-3.111-3.237-3.111-1.486 0-2.999 1.055-3.318 3.111m9.926.352c0 1.542-.451 2.408-2.654 2.408h-7.325C54.174 18.702 55.766 20 57.89 20c1.725 0 2.92-.514 3.715-1.029 1.46-.92 2.893 1.272 1.487 2.462-.85.704-2.787 1.57-5.281 1.57-4.459 0-7.431-2.976-7.431-7.955 0-5.113 3.53-7.656 7.085-7.656 3.902 0 6.529 2.921 6.529 6.466M76.492 13.29c0-1.622-1.062-2.705-2.946-2.705-1.46 0-2.654.785-3.317 2.679v8.197c0 .974-.823 1.461-1.699 1.461-.902 0-1.725-.487-1.725-1.46V8.934c0-.947.823-1.461 1.725-1.461.85 0 1.699.514 1.699 1.46v.677c1.114-1.434 2.813-2.137 4.485-2.137 2.76 0 5.201 1.731 5.201 5.168v8.82c0 .973-.849 1.46-1.725 1.46-.875 0-1.698-.487-1.698-1.46V13.29zM93.264 16.754v-3.166c-.425-2.137-2.096-2.976-3.397-2.976-2.043 0-3.61 1.488-3.61 4.545 0 3.058 1.275 4.844 3.61 4.844 1.407 0 2.946-.785 3.397-3.247zm3.424 4.707c0 .975-.823 1.462-1.726 1.462-.875 0-1.698-.487-1.698-1.462v-.568c-.955 1.353-2.548 2.03-4.14 2.03-2.813 0-6.45-1.948-6.45-7.738 0-5.222 3.292-7.603 6.45-7.603 1.592 0 3.185.704 4.14 1.948V2.469c0-.947.823-1.434 1.725-1.434.876 0 1.699.487 1.699 1.434V21.46zM109.744 8.367c1.645.893.451 3.382-1.247 2.516-.61-.352-1.964-.73-2.92-.73-1.592 0-2.494.595-2.494 1.623s.876 1.542 2.256 1.812l1.353.27c2.468.515 4.087 1.976 4.087 4.303 0 2.786-2.495 4.843-5.971 4.843-1.964 0-3.556-.38-4.75-1.19-1.62-1.03-.399-3.762 1.432-2.76.77.514 2.283 1 3.265 1 1.619 0 2.627-.676 2.627-1.731 0-1.028-.929-1.542-2.282-1.84l-1.407-.298c-2.229-.46-4.034-1.893-4.034-4.355 0-2.49 2.203-4.437 5.653-4.437 2.123 0 3.556.487 4.432.974" transform="translate(-416 -10895) translate(416 10895) translate(29 3.081)"/>
                </g>
            </g>
        </g>
    </g>
</svg>
