<svg width="300" height="299" viewBox="0 0 300 299" fill="none" xmlns="http://www.w3.org/2000/svg">
<path d="M0 293.931C0 295.169 0.492138 296.358 1.36815 297.234C2.24416 298.11 3.43228 298.602 4.67115 298.602H295.32C295.937 298.607 296.549 298.487 297.119 298.249C297.689 298.012 298.205 297.661 298.636 297.219L298.664 297.2C298.692 297.172 298.692 297.116 298.729 297.088C299.194 296.563 299.536 295.941 299.729 295.267C299.794 295.052 299.823 294.846 299.86 294.622C299.897 294.388 300 294.183 300 293.94C300 293.566 299.869 293.239 299.785 292.894C299.757 292.763 299.813 292.632 299.766 292.501L270.245 201.741C270.021 201.038 269.63 200.4 269.105 199.882L109.193 39.9601C109.025 39.6985 108.903 39.4182 108.679 39.1847L73.7481 4.25382C71.0162 1.52972 67.3156 0 63.4576 0C59.5996 0 55.899 1.52972 53.167 4.25382L4.26009 53.1608C1.51345 55.9074 0 59.5603 0 63.4467C0 67.3331 1.51345 70.9952 4.26009 73.7419L38.4155 107.897C38.5837 108.15 38.6958 108.439 38.92 108.663L198.58 269.398C199.128 269.956 199.81 270.364 200.561 270.584L263.275 289.269H4.67115C4.05817 289.268 3.45096 289.387 2.88428 289.621C2.31761 289.855 1.80259 290.198 1.36871 290.631C0.934835 291.064 0.590612 291.578 0.355751 292.144C0.120889 292.711 -1.23088e-06 293.318 0 293.931H0ZM59.4357 94.7714L205.988 239.446L200.598 258.15L48.8322 105.375L59.4357 94.7714V94.7714ZM213.154 233.402L66.0314 88.1757L88.7986 65.4085L234.604 211.597V233.402H213.154ZM240.424 204.207L95.4036 58.8035L105.11 49.0969L256.558 200.545L240.424 204.207V204.207ZM214.761 242.744H239.275C240.514 242.744 241.702 242.252 242.578 241.376C243.454 240.5 243.946 239.312 243.946 238.073V212.989L262.696 208.729L288.135 286.924L208.838 263.297L214.761 242.744ZM9.3423 63.4467C9.3423 62.0546 9.88416 60.7561 10.8651 59.7658L59.772 10.8588C60.7508 9.88386 62.0761 9.33644 63.4576 9.33644C64.8391 9.33644 66.1643 9.88386 67.1431 10.8588L98.6454 42.3611L42.3767 98.6298L10.8744 67.1275C10.3867 66.647 9.99991 66.0739 9.7368 65.4418C9.47369 64.8096 9.33956 64.1313 9.3423 63.4467V63.4467Z" fill="black"/>
</svg>
