<svg width="44" height="44" viewBox="0 0 44 44" fill="none" xmlns="http://www.w3.org/2000/svg">
<path d="M30.298 1.63504C19.0534 -2.95351 6.21501 2.4465 1.63195 13.696C-2.95111 24.9456 2.44931 37.7772 13.6939 42.3657C24.9384 46.9543 37.7768 41.5484 42.3657 30.3047C46.9546 19.061 41.5483 6.21775 30.298 1.63504ZM26.4797 10.9814C27.6882 10.2459 29.1887 10.5027 29.8309 11.5594C30.4731 12.616 30.0177 14.0638 28.8092 14.7994C27.6007 15.535 26.1002 15.2781 25.458 14.2214C24.81 13.1706 25.2712 11.717 26.4797 10.9814ZM13.256 16.2822C14.4295 14.5542 16.7181 12.4526 20.5714 10.8822C22.2353 10.2225 24.413 9.80803 24.413 9.80803C24.413 9.80803 16.7356 11.5419 15.6906 18.2087C15.0717 22.7272 22.3871 21.8107 22.3871 21.8107C22.3871 21.8107 19.9642 23.2059 16.5663 23.2526C13.1918 23.165 12.0124 21.0109 12.0124 19.4347C12.0124 19.4347 11.884 18.2204 13.256 16.2822ZM29.2062 26.8137C27.2971 28.7811 24.413 31.0228 20.2794 32.6749C16.8991 34.0468 12.6897 34.3037 12.6897 34.3037C12.6897 34.3037 18.96 32.4005 23.7649 27.4092C28.5698 22.4178 26.1644 20.2928 25.5923 19.7616C25.0201 19.2362 23.6948 18.2437 19.2461 19.026C19.2461 19.026 22.6264 17.4148 26.7366 17.4381C30.8468 17.4615 31.9852 19.7032 31.9852 21.3728C31.9852 23.0366 31.1095 24.8463 29.2062 26.8137Z" fill="white"/>
</svg>
