<svg xmlns="http://www.w3.org/2000/svg" width="28" height="29" viewBox="0 0 28 29">
    <g fill="none" fill-rule="evenodd">
        <g>
            <g>
                <path fill="#D8D8D8" fill-opacity="0" d="M0 1H28V29H0z" transform="translate(-1263 -10954) translate(1263 10954)"/>
                <g fill="#A9A9A9" fill-rule="nonzero">
                    <g>
                        <path d="M22.095 13.735c-.09-.7-.346-1.345-.66-1.97-.524-1.05-1.222-1.982-2.003-2.86-1.022-1.143-2.165-2.158-3.4-3.073-.73-.54-1.51-1.009-2.291-1.471-.868-.514-1.754-.996-2.67-1.422-.668-.31-1.346-.605-2.028-.89-.748-.312-1.518-.572-2.295-.806-.74-.223-1.487-.421-2.247-.565C3.976.58 3.447.486 2.915.427 2.33.362 1.74.336 1.15.297.99.29.83.298.67.298v.028c.414.162.832.312 1.24.488.84.363 1.684.721 2.509 1.116.723.345 1.429.726 2.13 1.111 1 .551 1.96 1.164 2.892 1.82.835.588 1.642 1.213 2.408 1.888.867.763 1.693 1.568 2.4 2.481.558.718 1.046 1.477 1.41 2.309.244.554.42 1.126.487 1.728.07.616.012 1.218-.239 1.792-.232.53-.612.945-1.077 1.288-.558.41-1.193.645-1.869.79-.811.176-1.632.208-2.453.17-.535-.027-1.067-.1-1.598-.17-.33-.042-.656-.116-.984-.176-.008-.002-.016 0-.029.011.236.09.468.186.707.266.716.235 1.427.485 2.153.688.687.192 1.387.351 2.087.486.547.106 1.107.157 1.662.227.641.08 1.287.092 1.932.062.489-.023.977-.087 1.463-.15.547-.07 1.08-.21 1.592-.413.666-.264 1.279-.61 1.763-1.144.375-.412.624-.89.758-1.425.152-.605.16-1.216.08-1.833" transform="translate(-1263 -10954) translate(1263 10954) translate(2.8) matrix(1 0 0 -1 0 29)"/>
                    </g>
                    <g>
                        <path d="M4.092 6.453c-.106-.505-.15-1.016-.097-1.531.096-.944.496-1.708 1.227-2.276.448-.349.951-.574 1.484-.737.456-.139.922-.224 1.394-.28.918-.11 1.836-.093 2.756-.034.095.007.19.018.284.026l.005-.023c-.229-.1-.455-.205-.685-.305-.61-.267-1.234-.5-1.874-.675C8.046.471 7.498.348 6.95.236 6.2.082 5.439.033 4.675.073 3.636.128 2.648.385 1.767.995c-.554.383-1.013.868-1.337 1.48-.2.376-.301.788-.351 1.212-.054.45-.038.898.034 1.344.078.489.22.957.412 1.407.374.884.901 1.66 1.49 2.398.417.52.852 1.018 1.33 1.476.645.62 1.338 1.178 2.067 1.687 1.002.698 2.059 1.287 3.163 1.783.743.334 1.504.62 2.279.864.738.231 1.485.421 2.241.573l-.338-.121c-1.479-.532-2.868-1.247-4.16-2.169-.852-.609-1.633-1.304-2.32-2.113-.665-.782-1.204-1.651-1.622-2.604-.25-.566-.435-1.151-.563-1.759" transform="translate(-1263 -10954) translate(1263 10954) translate(2.8) matrix(1 0 0 -1 0 16.4)"/>
                    </g>
                    <g>
                        <path d="M5.833 1.05C5.36.643 4.79.385 4.138.285c-.824-.129-1.613-.07-2.32.379-.57.363-.977.835-1.118 1.465-.112.498-.015.976.224 1.43.365.691.925 1.216 1.69 1.558.342.152.709.228 1.09.24.097.002.194 0 .29 0 .519.01 1.018-.064 1.492-.26.74-.306 1.169-.83 1.325-1.54.224-1.008-.182-1.823-.978-2.507" transform="translate(-1263 -10954) translate(1263 10954) translate(2.8) matrix(1 0 0 -1 14 7.3)"/>
                    </g>
                </g>
            </g>
        </g>
    </g>
</svg>
