<svg width="300" height="229" viewBox="0 0 300 229" fill="none" xmlns="http://www.w3.org/2000/svg">
<g clip-path="url(#clip0)">
<path d="M254.658 100.168C253.755 99.8809 252.775 99.9642 251.934 100.4C251.093 100.835 250.459 101.587 250.172 102.489C249.885 103.392 249.968 104.372 250.404 105.213C250.839 106.054 251.591 106.688 252.493 106.975C280.408 115.868 292.858 129.132 292.858 150.004C292.858 168.568 275.922 182.975 265.836 189.918C265.359 190.246 264.968 190.685 264.698 191.198C264.428 191.711 264.287 192.281 264.286 192.861V220.168C255.71 216.915 248.049 211.633 241.958 204.775C241.545 204.315 241.02 203.969 240.435 203.77C239.849 203.571 239.223 203.526 238.615 203.639C236.579 204.032 234.501 204.589 232.394 205.154C228.751 206.132 224.994 207.146 221.429 207.146C203.086 207.146 190.244 203.204 177.115 193.554C176.351 192.992 175.396 192.757 174.459 192.899C173.522 193.042 172.68 193.551 172.119 194.314C171.557 195.078 171.321 196.033 171.464 196.97C171.607 197.907 172.116 198.749 172.879 199.311C187.358 209.954 201.422 214.289 221.429 214.289C225.936 214.289 230.165 213.154 234.251 212.054C235.522 211.704 236.786 211.361 238.036 211.068C251.386 225.168 266.486 228.375 267.144 228.504C267.662 228.611 268.199 228.601 268.713 228.474C269.227 228.347 269.706 228.105 270.115 227.768C270.526 227.434 270.857 227.013 271.085 226.534C271.312 226.056 271.43 225.533 271.429 225.004V194.725C289.872 181.575 300.001 165.746 300.001 150.004C300.001 125.854 285.594 110.018 254.658 100.168Z" fill="black"/>
<path d="M235.714 96.4286C235.714 41.4571 185.586 0 119.121 0C52.3214 0 0 42.3643 0 96.4429C0 128.864 22.9357 152.093 42.8571 166.15V213.55C42.8608 214.145 43.0125 214.73 43.2985 215.251C43.5845 215.773 43.9958 216.215 44.4954 216.539C44.9949 216.862 45.5671 217.055 46.1602 217.102C46.7533 217.149 47.3487 217.048 47.8929 216.807C48.9357 216.343 73.3143 205.264 94.1714 182.457C103.207 184.136 113.429 185.75 122.7 185.75C190.293 185.75 235.714 149.85 235.714 96.4286ZM122.693 178.607C113.336 178.607 102.7 176.814 93.5286 175.064C92.9208 174.953 92.2945 174.998 91.7094 175.197C91.1242 175.396 90.5997 175.741 90.1857 176.2C75.5429 192.714 58.3357 203.207 50 207.729V164.286C49.9998 163.706 49.8585 163.136 49.5885 162.623C49.3185 162.11 48.9277 161.671 48.45 161.343C29.6071 148.379 7.14286 126.607 7.14286 96.4429C7.14286 46.3643 56.3286 7.14286 119.121 7.14286C181.521 7.14286 228.571 45.5286 228.571 96.4286C228.571 145.586 186.021 178.607 122.693 178.607Z" fill="black"/>
<path d="M117.857 82.1426C109.979 82.1426 103.571 88.5497 103.571 96.4283C103.571 104.307 109.979 110.714 117.857 110.714C125.736 110.714 132.143 104.307 132.143 96.4283C132.143 88.5497 125.736 82.1426 117.857 82.1426ZM117.857 103.571C116.018 103.489 114.281 102.7 113.009 101.37C111.737 100.039 111.027 98.2693 111.027 96.4283C111.027 94.5873 111.737 92.8173 113.009 91.4867C114.281 90.1562 116.018 89.3677 117.857 89.2854C119.696 89.3677 121.433 90.1562 122.705 91.4867C123.978 92.8173 124.688 94.5873 124.688 96.4283C124.688 98.2693 123.978 100.039 122.705 101.37C121.433 102.7 119.696 103.489 117.857 103.571Z" fill="black"/>
<path d="M167.857 82.1426C159.979 82.1426 153.572 88.5497 153.572 96.4283C153.572 104.307 159.979 110.714 167.857 110.714C175.736 110.714 182.143 104.307 182.143 96.4283C182.143 88.5497 175.736 82.1426 167.857 82.1426ZM167.857 103.571C166.018 103.489 164.282 102.7 163.009 101.37C161.737 100.039 161.027 98.2693 161.027 96.4283C161.027 94.5873 161.737 92.8173 163.009 91.4867C164.282 90.1562 166.018 89.3677 167.857 89.2854C169.696 89.3677 171.433 90.1562 172.705 91.4867C173.978 92.8173 174.688 94.5873 174.688 96.4283C174.688 98.2693 173.978 100.039 172.705 101.37C171.433 102.7 169.696 103.489 167.857 103.571Z" fill="black"/>
<path d="M67.8571 82.8262C59.9786 82.8262 53.5714 89.2333 53.5714 97.1119C53.5714 104.99 59.9786 111.398 67.8571 111.398C75.7357 111.398 82.1428 104.99 82.1428 97.1119C82.1428 89.2333 75.7357 82.8262 67.8571 82.8262ZM67.8571 104.255C66.018 104.172 64.2814 103.384 63.0091 102.053C61.7367 100.723 61.0266 98.9529 61.0266 97.1119C61.0266 95.2709 61.7367 93.5009 63.0091 92.1703C64.2814 90.8398 66.018 90.0513 67.8571 89.969C69.6963 90.0513 71.4328 90.8398 72.7052 92.1703C73.9775 93.5009 74.6876 95.2709 74.6876 97.1119C74.6876 98.9529 73.9775 100.723 72.7052 102.053C71.4328 103.384 69.6963 104.172 67.8571 104.255Z" fill="black"/>
</g>
<defs>
<clipPath id="clip0">
<rect width="300" height="228.571" fill="white"/>
</clipPath>
</defs>
</svg>
