<svg xmlns="http://www.w3.org/2000/svg" width="28" height="28" viewBox="0 0 28 28">
    <g fill="none" fill-rule="evenodd">
        <g>
            <g>
                <path fill="#D8D8D8" fill-opacity="0" d="M0 0H28V28H0z" transform="translate(-1363 -10955) translate(1363 10955)"/>
                <g fill="#A9A9A9" fill-rule="nonzero">
                    <path d="M11.209 5.603v8.394L18.497 9.8 11.21 5.603zm16.214 10.93c-.323 1.2-1.269 2.145-2.468 2.468C22.764 19.6 14 19.6 14 19.6s-8.764 0-10.956-.577C1.868 18.701.9 17.732.577 16.533 0 14.343 0 9.8 0 9.8s0-4.565.577-6.733C.9 1.867 1.845.923 3.044.599 5.258 0 14 0 14 0s8.764 0 10.955.577c1.2.322 2.145 1.268 2.469 2.467C28 5.234 28 9.777 28 9.777s.023 4.566-.577 6.756" transform="translate(-1363 -10955) translate(1363 10955) matrix(1 0 0 -1 0 23.8)"/>
                </g>
            </g>
        </g>
    </g>
</svg>
